<mxfile host="app.diagrams.net" modified="2023-06-08T14:20:44.675Z" agent="Mozilla/5.0 (Windows NT 10.0; Win64; x64) AppleWebKit/537.36 (KHTML, like Gecko) Chrome/114.0.0.0 Safari/537.36" etag="jJ1A2kyjVWjdQhrBJAPb" version="21.3.7" type="device">
  <diagram name="Page-1" id="6Q4XC-ddhazeYox3t6BI">
    <mxGraphModel dx="1178" dy="786" grid="1" gridSize="10" guides="1" tooltips="1" connect="1" arrows="1" fold="1" page="1" pageScale="1" pageWidth="850" pageHeight="1100" math="0" shadow="0">
      <root>
        <mxCell id="0" />
        <mxCell id="1" parent="0" />
        <mxCell id="xrYMCkHIq_qEF54hX1PY-5" value="" style="edgeStyle=orthogonalEdgeStyle;rounded=0;orthogonalLoop=1;jettySize=auto;html=1;" edge="1" parent="1" source="xrYMCkHIq_qEF54hX1PY-1" target="xrYMCkHIq_qEF54hX1PY-4">
          <mxGeometry relative="1" as="geometry" />
        </mxCell>
        <mxCell id="xrYMCkHIq_qEF54hX1PY-1" value="start" style="ellipse;whiteSpace=wrap;html=1;" vertex="1" parent="1">
          <mxGeometry x="380" y="30" width="120" height="80" as="geometry" />
        </mxCell>
        <mxCell id="xrYMCkHIq_qEF54hX1PY-18" value="" style="edgeStyle=orthogonalEdgeStyle;rounded=0;orthogonalLoop=1;jettySize=auto;html=1;" edge="1" parent="1" source="xrYMCkHIq_qEF54hX1PY-2" target="xrYMCkHIq_qEF54hX1PY-8">
          <mxGeometry relative="1" as="geometry" />
        </mxCell>
        <mxCell id="xrYMCkHIq_qEF54hX1PY-2" value="input for n&amp;nbsp;" style="shape=parallelogram;perimeter=parallelogramPerimeter;whiteSpace=wrap;html=1;fixedSize=1;" vertex="1" parent="1">
          <mxGeometry x="370" y="250" width="120" height="60" as="geometry" />
        </mxCell>
        <mxCell id="xrYMCkHIq_qEF54hX1PY-6" value="" style="edgeStyle=orthogonalEdgeStyle;rounded=0;orthogonalLoop=1;jettySize=auto;html=1;" edge="1" parent="1" source="xrYMCkHIq_qEF54hX1PY-4" target="xrYMCkHIq_qEF54hX1PY-2">
          <mxGeometry relative="1" as="geometry" />
        </mxCell>
        <mxCell id="xrYMCkHIq_qEF54hX1PY-4" value="print &quot;enter a integer" style="shape=parallelogram;perimeter=parallelogramPerimeter;whiteSpace=wrap;html=1;fixedSize=1;" vertex="1" parent="1">
          <mxGeometry x="380" y="150" width="120" height="60" as="geometry" />
        </mxCell>
        <mxCell id="xrYMCkHIq_qEF54hX1PY-20" value="" style="edgeStyle=orthogonalEdgeStyle;rounded=0;orthogonalLoop=1;jettySize=auto;html=1;" edge="1" parent="1" source="xrYMCkHIq_qEF54hX1PY-8" target="xrYMCkHIq_qEF54hX1PY-19">
          <mxGeometry relative="1" as="geometry" />
        </mxCell>
        <mxCell id="xrYMCkHIq_qEF54hX1PY-21" style="edgeStyle=orthogonalEdgeStyle;rounded=0;orthogonalLoop=1;jettySize=auto;html=1;entryX=0;entryY=0.5;entryDx=0;entryDy=0;entryPerimeter=0;" edge="1" parent="1" source="xrYMCkHIq_qEF54hX1PY-8" target="xrYMCkHIq_qEF54hX1PY-4">
          <mxGeometry relative="1" as="geometry">
            <mxPoint x="130" y="160" as="targetPoint" />
            <Array as="points">
              <mxPoint x="200" y="420" />
              <mxPoint x="200" y="330" />
              <mxPoint x="190" y="330" />
              <mxPoint x="190" y="180" />
            </Array>
          </mxGeometry>
        </mxCell>
        <mxCell id="xrYMCkHIq_qEF54hX1PY-8" value="if N[0] is between &#39;0&#39; and &#39;9&#39;" style="rhombus;whiteSpace=wrap;html=1;" vertex="1" parent="1">
          <mxGeometry x="375" y="360" width="110" height="120" as="geometry" />
        </mxCell>
        <mxCell id="xrYMCkHIq_qEF54hX1PY-15" value="no" style="text;html=1;align=center;verticalAlign=middle;resizable=0;points=[];autosize=1;strokeColor=none;fillColor=none;" vertex="1" parent="1">
          <mxGeometry x="290" y="318" width="40" height="30" as="geometry" />
        </mxCell>
        <mxCell id="xrYMCkHIq_qEF54hX1PY-19" value="convert N to integer" style="whiteSpace=wrap;html=1;" vertex="1" parent="1">
          <mxGeometry x="560" y="390" width="120" height="60" as="geometry" />
        </mxCell>
      </root>
    </mxGraphModel>
  </diagram>
</mxfile>
